<svg width="1395" height="316" viewBox="0 0 1395 316" fill="none" xmlns="http://www.w3.org/2000/svg">
<path d="M122.595 315.853C98.4734 315.853 77.4733 311.454 59.5949 302.657C42.0002 293.86 28.0947 281.657 17.8785 266.049C7.6622 250.44 1.70271 232.278 0 211.562L47.2502 208.582C49.2367 222.771 53.3516 234.832 59.5949 244.765C65.8382 254.413 74.2098 261.792 84.7099 266.9C95.4937 271.724 108.406 274.136 123.447 274.136C136.501 274.136 147.568 272.576 156.649 269.454C166.014 266.049 173.109 261.082 177.933 254.555C182.758 248.028 185.17 240.082 185.17 230.717C185.17 222.204 183.041 214.683 178.785 208.156C174.812 201.346 167.008 195.244 155.372 189.852C144.021 184.177 127.278 178.643 105.142 173.251C81.0207 167.291 61.7233 160.764 47.2502 153.67C32.7772 146.575 22.2771 137.778 15.7501 127.278C9.5068 116.494 6.38517 103.298 6.38517 87.6896C6.38517 70.3787 10.5001 55.1962 18.7298 42.1421C27.2434 28.8042 39.3042 18.446 54.9124 11.0676C70.5206 3.6892 89.2504 0 111.102 0C134.088 0 153.67 4.25677 169.845 12.7703C186.305 21.2839 199.217 32.9191 208.582 47.6759C218.231 62.4327 224.19 79.3179 226.461 98.3315L179.21 100.886C177.791 89.2504 174.244 79.0342 168.568 70.2368C162.893 61.1557 155.23 54.2029 145.582 49.3786C135.933 44.2705 124.156 41.7164 110.251 41.7164C92.6559 41.7164 78.7504 45.8313 68.5341 54.0611C58.6016 62.007 53.6354 72.649 53.6354 85.9869C53.6354 94.5004 55.6219 101.737 59.5949 107.696C63.8517 113.372 71.2301 118.338 81.7301 122.595C92.514 126.852 107.696 131.393 127.278 136.217C153.386 142.176 174.102 149.555 189.427 158.352C205.035 166.866 216.102 176.94 222.629 188.575C229.157 200.21 232.42 213.406 232.42 228.163C232.42 246.042 227.738 261.65 218.373 274.988C209.292 288.042 196.521 298.116 180.062 305.211C163.602 312.306 144.447 315.853 122.595 315.853Z" fill="white"/>
<path d="M364.387 314.15C342.819 314.15 323.947 309.326 307.772 299.677C291.596 290.028 279.109 276.265 270.312 258.386C261.515 240.508 257.116 219.65 257.116 195.812C257.116 171.69 261.515 150.832 270.312 133.237C279.109 115.642 291.596 102.021 307.772 92.3721C323.947 82.4396 342.819 77.4733 364.387 77.4733C385.954 77.4733 404.826 82.4396 421.002 92.3721C437.178 102.021 449.664 115.642 458.462 133.237C467.259 150.832 471.658 171.69 471.658 195.812C471.658 219.65 467.259 240.508 458.462 258.386C449.664 276.265 437.178 290.028 421.002 299.677C404.826 309.326 385.954 314.15 364.387 314.15ZM364.387 274.988C383.684 274.988 398.583 268.035 409.083 254.13C419.583 239.94 424.833 220.501 424.833 195.812C424.833 171.122 419.583 151.825 409.083 137.92C398.583 123.73 383.684 116.636 364.387 116.636C345.373 116.636 330.474 123.73 319.691 137.92C309.191 151.825 303.941 171.122 303.941 195.812C303.941 220.501 309.191 239.94 319.691 254.13C330.474 268.035 345.373 274.988 364.387 274.988Z" fill="white"/>
<path d="M495.974 309.042V82.5815H537.265L538.968 143.028L533.434 140.048C535.988 125.291 540.812 113.372 547.907 104.291C555.002 95.2099 563.657 88.541 573.873 84.2842C584.09 79.7436 595.157 77.4733 607.076 77.4733C624.103 77.4733 638.151 81.3044 649.218 88.9666C660.57 96.3451 669.083 106.561 674.759 119.615C680.719 132.386 683.698 147.001 683.698 163.46V309.042H638.576V177.082C638.576 163.744 637.158 152.535 634.32 143.453C631.482 134.372 626.799 127.42 620.272 122.595C613.745 117.771 605.232 115.359 594.732 115.359C578.84 115.359 565.927 120.609 555.995 131.109C546.062 141.609 541.096 156.933 541.096 177.082V309.042H495.974Z" fill="white"/>
<path d="M801.654 314.15C782.357 314.15 765.472 309.326 750.999 299.677C736.809 290.028 725.884 276.407 718.221 258.812C710.843 240.934 707.154 219.933 707.154 195.812C707.154 171.69 710.985 150.832 718.647 133.237C726.309 115.359 737.235 101.595 751.424 91.9464C765.614 82.2977 782.357 77.4733 801.654 77.4733C817.262 77.4733 831.168 80.7369 843.371 87.2639C855.573 93.791 864.796 102.872 871.04 114.507V6.81083H916.162V309.042H874.019L872.742 274.988C866.499 287.191 856.992 296.839 844.222 303.934C831.735 310.745 817.546 314.15 801.654 314.15ZM813.573 274.988C825.776 274.988 836.134 271.866 844.648 265.623C853.161 259.38 859.688 250.299 864.229 238.38C868.769 226.461 871.04 212.271 871.04 195.812C871.04 178.785 868.769 164.453 864.229 152.818C859.688 140.899 853.161 131.96 844.648 126.001C836.134 119.757 825.776 116.636 813.573 116.636C795.411 116.636 780.938 123.73 770.154 137.92C759.37 151.825 753.978 171.122 753.978 195.812C753.978 220.217 759.37 239.515 770.154 253.704C780.938 267.893 795.411 274.988 813.573 274.988Z" fill="white"/>
<path d="M1047.97 314.15C1025.83 314.15 1006.67 309.326 990.499 299.677C974.607 290.028 962.262 276.265 953.465 258.386C944.951 240.508 940.695 219.65 940.695 195.812C940.695 171.974 944.951 151.257 953.465 133.663C962.262 115.784 974.607 102.021 990.499 92.3721C1006.39 82.4396 1025.12 77.4733 1046.69 77.4733C1067.12 77.4733 1085.14 82.2977 1100.75 91.9464C1116.36 101.311 1128.42 114.933 1136.93 132.811C1145.73 150.69 1150.13 172.258 1150.13 197.514V209.008H987.519C988.654 231.143 994.472 247.744 1004.97 258.812C1015.76 269.88 1030.23 275.413 1048.39 275.413C1061.73 275.413 1072.8 272.292 1081.59 266.049C1090.39 259.805 1096.49 251.434 1099.9 240.934L1146.72 243.913C1140.76 264.913 1128.99 281.941 1111.39 294.995C1094.08 307.765 1072.94 314.15 1047.97 314.15ZM987.519 174.954H1102.45C1101.03 154.805 1095.22 139.906 1085 130.257C1075.07 120.609 1062.3 115.784 1046.69 115.784C1030.51 115.784 1017.17 120.892 1006.67 131.109C996.458 141.041 990.073 155.656 987.519 174.954Z" fill="white"/>
<rect x="1245.34" y="144.103" width="139.441" height="139.441" rx="69.7206" stroke="white" stroke-width="19.4785"/>
<rect x="1293.78" y="192.539" width="45.4056" height="45.4056" rx="22.7028" fill="white"/>
</svg>
